<svg xmlns="http://www.w3.org/2000/svg" version="1.1" xmlns:xlink="http://www.w3.org/1999/xlink" xmlns:svgjs="http://svgjs.dev/svgjs" width="2000" height="2250" viewBox="0 0 2000 2250"><g transform="matrix(1,0,0,1,3.410605131648481e-13,0)"><svg viewBox="0 0 320 360" data-background-color="#ffffff" preserveAspectRatio="xMidYMid meet" height="2250" width="2000" xmlns="http://www.w3.org/2000/svg" xmlns:xlink="http://www.w3.org/1999/xlink"><g id="tight-bounds" transform="matrix(1,0,0,1,0,0)"><svg viewBox="0 0 320 360" height="360" width="320"><g><svg></svg></g><g><svg viewBox="0 0 320 360" height="360" width="320"><g><path d="M20.961 227.22l3.726 4.658-1.863-6.056c-0.466-2.795-3.726 0.466-1.863 1.398M25.153 224.425c1.397 2.329 2.795 4.658 2.795 6.987 0 3.261 2.795 4.658 5.123 5.589-3.261-3.726-5.124-13.974-7.918-12.576M204.017 26.929c7.918 0 15.371-0.932 23.756 0.931 20.495 5.124 37.729 15.371 49.374 29.811l32.606 52.169c1.397 13.042 4.192 27.482 3.726 43.319 3.261 0 2.795-4.658 6.521-5.59-3.726 9.316-5.59 20.961-6.521 34.469-2.329-7.453 0-18.632 0.466-24.687-3.261 5.124-5.124 1.397-5.124-0.932 0.466-3.726-1.397-3.261-2.795-4.658-5.124-4.658-8.384-9.782-12.11-17.7 2.329-6.055 2.795-14.905-4.658-19.563-2.329-1.397-5.124-3.726-6.521-7.453-1.863-5.124-5.124-11.179-4.193-19.097 0.466-2.329-6.987 5.124-11.179 1.863-18.166-12.576-36.332-27.016-58.224-39.127-11.645 0-20.029-4.192-24.221-9.316-3.726-4.658-0.932-10.713 4.658-11.179 3.261 0 6.987-0.932 9.782 0.932 0.466-1.863 2.329-4.192 4.657-4.192M157.904 16.215l0.932 0.466c4.658 0.932 6.987 7.453 12.11 5.124 0 3.261 0.466 6.521-0.466 8.85-1.397 3.726-5.59 3.726-8.85 3.726-31.208-1.863-49.374 11.179-68.471 22.358-5.124 3.261-10.713 5.59-14.906 9.782-20.029 18.632-41.921 35.866-47.045 70.335l-4.192 38.195c-0.466 4.192-5.124 8.384-4.192 13.508l3.26 22.824c-3.261-3.261-5.124 0.932-4.192 2.795 0.466 1.397 2.329 6.055 5.124 1.863 3.726 6.987 7.453 20.495 12.576 26.55 15.837 18.632 36.332 35.4 53.101 52.169 4.192-0.932 7.453-0.932 8.384-3.727 1.397 2.795-1.397 5.59-3.726 6.056 7.453 4.658 15.837 8.85 27.016 9.781 14.44 0.932 27.948 3.261 40.524 6.522 6.521-1.863 13.042-2.795 20.029-3.261 2.329 0 3.726-3.726 6.521-4.658l0.466-4.658c2.795 4.192 2.329-1.397 0.466-4.192 3.261 2.795 4.192 5.124 5.589 6.987 0-1.397 3.726-6.521 3.727-0.466l0.931-6.055c1.397-0.932 1.863 5.124 3.261 0.931 1.397-4.192 4.192-0.932 6.987-2.329-0.932 1.863-0.466 5.59 2.794 3.261l3.727-3.261c2.329 5.59 6.055 3.261 7.918 2.329 20.495-13.042 40.99-28.413 60.553-43.784l-0.466 6.055 2.329-7.453c2.329 2.329 4.192 0.466 5.124-0.931 2.795-4.658 6.521-9.316 12.577-13.508-7.453 20.029-16.303 35.866-27.482 48.908l-4.658 5.59c0 3.261-0.932 7.453-4.658 7.918-1.863 0.466-5.59-0.932-8.384 1.863-1.397 1.863 3.261 5.59-0.466 2.795-3.261-2.329-6.521 0-10.248 0.932-2.795 0.932 1.863 3.726 2.795 5.589 0.932 1.863 1.863 3.726 1.398 6.056l-5.124-5.59c-6.055 3.261-9.782 9.316-14.906 13.974-2.329 1.863-1.397 5.124-1.397 7.918-3.261 0-6.987-0.932-8.85 0.932-1.397 1.863-0.932 4.658-0.932 7.453-4.658-0.466-5.124-7.453-9.315-6.056-4.192 0.932-8.85 1.397-12.577 3.727 2.795 5.59-4.658 2.329-3.726 3.26-6.987-4.192-13.042-7.453-20.495-4.658-15.837-5.124-35.4-2.795-49.84-0.931 0-2.329 0.466-4.658-0.466-5.124-0.932 2.329-3.726 1.397-3.26 1.397-8.85-6.055-17.7-9.782-27.016-14.905-8.384 0.932-16.303-3.261-18.632-5.59-6.521-6.055-13.974-2.795-20.029-4.192-13.042-3.261-17.7-16.769-19.098-26.084-0.932-4.658-4.658-6.521-6.055-6.056-6.055-19.563-15.371-37.263-22.824-55.429-1.863-4.658-1.397-9.316-1.397-14.44 2.329 0.932 4.658 0.466 4.192-2.794-2.329-15.371-7.918-27.016-13.974-38.195 3.261-15.837 3.726-34.469 11.179-48.443 6.521-12.576 18.632-19.098 27.016-29.811 2.795-3.726 2.795-8.85 5.59-12.11 9.316-9.316 18.632-19.098 28.879-27.482 4.658-3.726 10.247 0 17.234-1.397 2.329-8.384 11.645-15.837 20.495-13.508 3.726 0.932 11.179-8.85 13.508-9.782 3.726-1.397 1.863 3.726 1.863 6.987 8.85-6.987 20.961-10.713 32.14-14.906" fill="#ff0000" fill-rule="nonzero" stroke="none" stroke-width="1" stroke-linecap="butt" stroke-linejoin="miter" stroke-miterlimit="10" stroke-dasharray="" stroke-dashoffset="0" font-family="none" font-weight="none" font-size="none" text-anchor="none" style="mix-blend-mode: normal" data-fill-palette-color="tertiary"></path></g><g transform="matrix(1,0,0,1,64,158.54281567489113)"><svg viewBox="0 0 192 42.91436865021771" height="42.91436865021771" width="192"><g><svg viewBox="0 0 192 42.91436865021771" height="42.91436865021771" width="192"><g><svg viewBox="0 0 192 42.91436865021771" height="42.91436865021771" width="192"><g><svg viewBox="0 0 192 42.91436865021771" height="42.91436865021771" width="192"><g id="textblocktransform"><svg viewBox="0 0 192 42.91436865021771" height="42.91436865021771" width="192" id="textblock"><g><svg viewBox="0 0 192 42.91436865021771" height="42.91436865021771" width="192"><g transform="matrix(1,0,0,1,0,0)"><svg width="192" viewBox="0.2 -34.3 206.69 46.199999999999996" height="42.91436865021771" data-palette-color="#ff0000"><path d="M28.55-34.3L28.55-30.15 22.2-30.15 22.2-11.15Q22.2-7.5 20.7-4.83 19.2-2.15 16.63-0.75 14.05 0.65 10.8 0.65L10.8 0.65Q7.6 0.65 4.85-0.45 2.1-1.55 0.2-3.15L0.2-3.15 2.45-6.75Q6.65-3.65 10.3-3.65L10.3-3.65Q13.4-3.65 15.2-5.53 17-7.4 17-11.25L17-11.25 16.95-30.15 8.05-30.15 8.05-34.3 28.55-34.3ZM55.55-4.15L56.55-0.6Q54.9 0.4 52.7 0.4L52.7 0.4Q50.85 0.4 49.57-0.68 48.3-1.75 47.8-3.75L47.8-3.75Q42.8 0.7 37.9 0.7L37.9 0.7Q34.45 0.7 32.05-1.25 29.65-3.2 29.65-6.7L29.65-6.7Q29.65-9.1 31-10.88 32.35-12.65 34.62-13.58 36.9-14.5 39.55-14.5L39.55-14.5Q41.8-14.5 43.7-14.08 45.6-13.65 47.6-12.85L47.6-12.85 47.6-15.05Q47.6-17.6 45.9-18.8 44.2-20 41.45-20L41.45-20Q37.55-20 32.05-17.85L32.05-17.85 31.05-21.65Q36.95-24.15 42.05-24.15L42.05-24.15Q46.9-24.15 49.57-21.78 52.25-19.4 52.25-14.85L52.25-14.85 52.25-6.2Q52.25-3.75 54-3.75L54-3.75Q54.75-3.75 55.55-4.15L55.55-4.15ZM34.5-6.95Q34.5-5.25 35.85-4.33 37.2-3.4 39.15-3.4L39.15-3.4Q40.85-3.4 43.05-4.3 45.25-5.2 47.6-6.95L47.6-6.95 47.6-9.6Q44.2-10.8 40.4-10.9L40.4-10.9Q37.95-10.9 36.22-9.88 34.5-8.85 34.5-6.95L34.5-6.95ZM88.09-23.55L88.09-19.6 84.4-19.6 74.5 2.6Q72.4 7.25 69.77 9.58 67.15 11.9 63.65 11.9L63.65 11.9Q61.7 11.9 60.12 11.28 58.55 10.65 56.7 9.45L56.7 9.45 58.7 5.7Q61.25 7.55 63.65 7.55L63.65 7.55Q65.8 7.55 67.5 6.18 69.2 4.8 70.5 1.8L70.5 1.8 70.84 1 60.75-19.6 56.85-19.6 56.85-23.55 70.05-23.55 70.05-19.95 66-19.95 73.09-4.15 80.05-19.95 76.2-19.95 76.2-23.55 88.09-23.55ZM117.84-4.05L118.89-0.45Q118.19-0.05 117.19 0.23 116.19 0.5 115.09 0.5L115.09 0.5Q113.24 0.5 111.89-0.48 110.54-1.45 110.04-3.3L110.04-3.3Q108.04-1.5 105.82-0.4 103.59 0.7 100.89 0.7L100.89 0.7Q97.84 0.7 95.22-0.85 92.59-2.4 91.04-5.18 89.49-7.95 89.49-11.45L89.49-11.45Q89.49-15.1 91.12-18.03 92.74-20.95 95.54-22.58 98.34-24.2 101.74-24.2L101.74-24.2Q106.09-24.2 109.74-21L109.74-21 109.74-30.35 104.44-30.35 104.44-34.3 114.54-34.3 114.54-6.05Q114.54-3.65 116.19-3.65L116.19-3.65Q117.29-3.65 117.84-4.05L117.84-4.05ZM94.59-11.5Q94.59-7.9 96.62-5.7 98.64-3.5 101.89-3.5L101.89-3.5Q105.64-3.5 109.74-6.9L109.74-6.9 109.74-17.25Q106.24-20.05 102.84-20.05L102.84-20.05Q100.49-20.05 98.59-18.95 96.69-17.85 95.64-15.9 94.59-13.95 94.59-11.5L94.59-11.5ZM143.74-6.7L145.84-3.5Q141.04 0.7 134.89 0.7L134.89 0.7Q131.54 0.7 128.54-0.7 125.54-2.1 123.69-4.8 121.84-7.5 121.84-11.2L121.84-11.2Q121.84-15.15 123.74-18.1 125.64-21.05 128.69-22.63 131.74-24.2 135.09-24.2L135.09-24.2Q138.04-24.2 140.37-23.25 142.69-22.3 144.01-20.6 145.34-18.9 145.34-16.7L145.34-16.7Q145.34-13.4 142.51-11.58 139.69-9.75 135.74-9.75L135.74-9.75Q133.19-9.75 130.99-10.28 128.79-10.8 126.54-11.8L126.54-11.8 126.54-11.35Q126.54-9 127.66-7.2 128.79-5.4 130.69-4.45 132.59-3.5 134.84-3.5L134.84-3.5Q139.94-3.5 143.74-6.7L143.74-6.7ZM135.44-20.3Q132.74-20.3 130.41-18.75 128.09-17.2 127.09-14.55L127.09-14.55Q130.89-13.2 134.69-13.2L134.69-13.2Q137.19-13.2 138.81-14.13 140.44-15.05 140.44-16.7L140.44-16.7Q140.44-18.3 139.04-19.3 137.64-20.3 135.44-20.3L135.44-20.3ZM171.69-6.7L173.79-3.5Q168.99 0.7 162.84 0.7L162.84 0.7Q159.49 0.7 156.49-0.7 153.49-2.1 151.64-4.8 149.79-7.5 149.79-11.2L149.79-11.2Q149.79-15.15 151.69-18.1 153.59-21.05 156.64-22.63 159.69-24.2 163.04-24.2L163.04-24.2Q165.99-24.2 168.31-23.25 170.64-22.3 171.96-20.6 173.29-18.9 173.29-16.7L173.29-16.7Q173.29-13.4 170.46-11.58 167.64-9.75 163.69-9.75L163.69-9.75Q161.14-9.75 158.94-10.28 156.74-10.8 154.49-11.8L154.49-11.8 154.49-11.35Q154.49-9 155.61-7.2 156.74-5.4 158.64-4.45 160.54-3.5 162.79-3.5L162.79-3.5Q167.89-3.5 171.69-6.7L171.69-6.7ZM163.39-20.3Q160.69-20.3 158.36-18.75 156.04-17.2 155.04-14.55L155.04-14.55Q158.84-13.2 162.64-13.2L162.64-13.2Q165.14-13.2 166.76-14.13 168.39-15.05 168.39-16.7L168.39-16.7Q168.39-18.3 166.99-19.3 165.59-20.3 163.39-20.3L163.39-20.3ZM195.94-24.2Q198.89-24.2 201.39-22.65 203.89-21.1 205.39-18.32 206.89-15.55 206.89-12L206.89-12Q206.89-8.35 205.26-5.45 203.64-2.55 200.84-0.93 198.04 0.7 194.64 0.7L194.64 0.7Q190.19 0.7 186.44-2.7L186.44-2.7 186.44 6.95 191.89 6.95 191.89 10.9 176.39 10.9 176.39 6.95 181.64 6.95 181.64-19.6 176.39-19.6 176.39-23.55 186.44-23.55 186.44-19Q188.39-21.4 190.89-22.8 193.39-24.2 195.94-24.2L195.94-24.2ZM193.59-3.5Q195.94-3.5 197.81-4.58 199.69-5.65 200.74-7.6 201.79-9.55 201.79-12.05L201.79-12.05Q201.79-15.6 199.76-17.82 197.74-20.05 194.59-20.05L194.59-20.05Q192.44-20.05 190.34-18.75 188.24-17.45 186.44-15.15L186.44-15.15 186.44-6.4Q190.04-3.5 193.59-3.5L193.59-3.5Z" opacity="1" transform="matrix(1,0,0,1,0,0)" fill="#ff0000" class="wordmark-text-0" data-fill-palette-color="primary" id="text-0"></path></svg></g></svg></g></svg></g></svg></g><g></g></svg></g></svg></g></svg></g></svg></g><defs></defs></svg><rect width="320" height="360" fill="none" stroke="none" visibility="hidden"></rect></g></svg></g></svg>